<svg width="61" height="70" viewBox="0 0 61 70" fill="none" xmlns="http://www.w3.org/2000/svg">
<g clip-path="url(#clip0)">
<path d="M25.353 39.9655C25.353 42.571 23.463 43.3945 21.141 43.3945H15.0525V36.253H21.2625C23.7735 36.2665 25.353 37.306 25.353 39.9655ZM24.3135 28.855C24.3135 26.4655 22.464 25.8985 20.412 25.8985H15.066V31.9465H20.8305C22.869 31.9465 24.3135 31.0555 24.3135 28.855ZM42.174 31.987C39.7035 31.987 38.0565 33.526 37.8945 35.9965H46.2915C46.062 33.499 44.766 31.987 42.174 31.987ZM60.6555 11.2105V58.7305C60.6555 62.308 57.753 65.2105 54.1755 65.2105H6.65554C3.07804 65.2105 0.175537 62.308 0.175537 58.7305V11.2105C0.175537 7.63297 3.07804 4.73047 6.65554 4.73047H54.1755C57.753 4.73047 60.6555 7.63297 60.6555 11.2105ZM36.855 25.3855H47.358V22.834H36.855V25.3855ZM31.05 40.276C31.05 37.0225 29.511 34.2145 26.325 33.31C28.647 32.203 29.862 30.9205 29.862 28.315C29.862 23.158 26.0145 21.9025 21.573 21.9025H9.35554V47.8225H21.924C26.6355 47.7955 31.05 45.541 31.05 40.276ZM51.4755 38.278C51.4755 32.7295 48.222 28.099 42.3495 28.099C36.6255 28.099 32.751 32.392 32.751 38.035C32.751 43.8805 36.4365 47.89 42.3495 47.89C46.8315 47.89 49.734 45.8785 51.138 41.572H46.5885C46.089 43.1785 44.0775 44.0155 42.5115 44.0155C39.4875 44.0155 37.908 42.247 37.908 39.25H51.435C51.4485 38.9395 51.4755 38.602 51.4755 38.278Z" fill="#08757A"/>
</g>
<defs>
<clipPath id="clip0">
<rect width="60.48" height="69.12" fill="white" transform="translate(0.175537 0.410156)"/>
</clipPath>
</defs>
</svg>
