<svg width="61" height="61" viewBox="0 0 61 61" fill="none" xmlns="http://www.w3.org/2000/svg">
<g clip-path="url(#clip0)">
<path d="M56.0595 0.209961H4.65148C2.13148 0.209961 0.115479 2.22596 0.115479 4.57796V56.322C0.115479 58.674 2.13148 60.69 4.65148 60.69H56.2275C58.7475 60.69 60.7635 58.674 60.7635 56.322V4.57796C60.5955 2.22596 58.5795 0.209961 56.0595 0.209961ZM18.0915 51.786H9.01948V22.89H17.9235V51.786H18.0915ZM13.5555 18.858C10.6995 18.858 8.34748 16.506 8.34748 13.65C8.34748 10.794 10.6995 8.60996 13.5555 8.60996C16.4115 8.60996 18.7635 10.962 18.7635 13.818C18.7635 16.674 16.4115 18.858 13.5555 18.858ZM51.6915 51.786H42.7875V37.674C42.7875 34.314 42.7875 29.946 38.0835 29.946C33.3795 29.946 32.7075 33.642 32.7075 37.338V51.618H23.6355V22.89H32.2035V26.754H32.3715C33.5475 24.402 36.5715 22.05 40.9395 22.05C50.0115 22.05 51.6915 28.098 51.6915 35.826V51.786Z" fill="#08757A"/>
</g>
<defs>
<clipPath id="clip0">
<rect width="60.648" height="60.48" fill="white" transform="translate(0.115479 0.209961)"/>
</clipPath>
</defs>
</svg>
